<?xml version="1.0" encoding="UTF-8"?>
<svg id="Layer_2" data-name="Layer 2" xmlns="http://www.w3.org/2000/svg" viewBox="0 0 560.01 560.01">
  <defs>
    <style>
      .cls-1 {
        fill: #c2c1c0;
      }

      .cls-2 {
        fill: #fff;
      }
    </style>
  </defs>
  <g id="Layer_1-2" data-name="Layer 1">
    <rect class="cls-2" width="560.01" height="560.01"/>
    <g>
      <path class="cls-1" d="M560.01,539.19v20.82H0v-20.82c0-101.12,54.66-189.45,136.05-237.07,33.57,42.61,85.61,70.05,143.96,70.05s110.4-27.44,143.93-70.07c81.39,47.62,136.07,135.97,136.07,237.09Z"/>
      <path class="cls-1" d="M425.48,189.06c0,23.03-5.36,44.82-14.9,64.16-5.66,11.53-12.83,22.22-21.24,31.78-26.64,30.37-65.76,49.54-109.33,49.54s-82.69-19.15-109.35-49.52c-8.39-9.56-15.56-20.24-21.24-31.78-9.54-19.36-14.88-41.15-14.88-64.18,0-80.36,65.12-145.5,145.48-145.5s145.48,65.14,145.48,145.5Z"/>
    </g>
  </g>
</svg>